<mxfile host="app.diagrams.net" modified="2023-07-25T20:13:26.168Z" agent="Mozilla/5.0 (Windows NT 10.0; Win64; x64) AppleWebKit/537.36 (KHTML, like Gecko) Chrome/115.0.0.0 Safari/537.36" etag="0xYCHFmpYiNcyUXHNgn8" version="21.6.5" type="device">
  <diagram id="PN-a7cgjVNnVVcfMa5UT" name="Página-1">
    <mxGraphModel dx="1500" dy="820" grid="1" gridSize="10" guides="1" tooltips="1" connect="1" arrows="1" fold="1" page="1" pageScale="1" pageWidth="2336" pageHeight="1654" math="0" shadow="0">
      <root>
        <mxCell id="0" />
        <mxCell id="1" parent="0" />
        <mxCell id="jqNd-tk94i1S7kKQQhx--1" value="A Optus é uma empresa no ramo musical que deseja realizar o gerenciamento dos lançamentos de novos cds de seus artistas. Cada álbum lançado poderá conter mais de um estilo vinculado (ex.: Indie e Folk).&#xa;É importante que você crie também uma estratégia para que os usuários possuam acesso à plataforma.&#xa;Os usuários deverão conter nome, email, senha e o tipo de permissão (eles podem ser do tipo administrador ou comum).&#xa;&#xa;&#xa;Observações:&#xa;Os Artistas deverão possuir somente nome.&#xa;Estilos: nome.&#xa;Albuns: titulo, data de lançamento, localizacao, quantidade de minutos, se o álbum está ativo para visualização, a quem pertence (somente um artista por álbum) e quais os estilos vinculados." style="text;whiteSpace=wrap;" vertex="1" parent="1">
          <mxGeometry x="1070" y="30" width="560" height="230" as="geometry" />
        </mxCell>
        <mxCell id="jqNd-tk94i1S7kKQQhx--44" style="edgeStyle=orthogonalEdgeStyle;rounded=0;orthogonalLoop=1;jettySize=auto;html=1;exitX=0.5;exitY=1;exitDx=0;exitDy=0;endArrow=none;endFill=0;" edge="1" parent="1" source="jqNd-tk94i1S7kKQQhx--2" target="jqNd-tk94i1S7kKQQhx--35">
          <mxGeometry relative="1" as="geometry" />
        </mxCell>
        <mxCell id="jqNd-tk94i1S7kKQQhx--2" value="Empresa" style="rounded=0;whiteSpace=wrap;html=1;" vertex="1" parent="1">
          <mxGeometry x="560" y="300" width="120" height="60" as="geometry" />
        </mxCell>
        <mxCell id="jqNd-tk94i1S7kKQQhx--12" style="edgeStyle=orthogonalEdgeStyle;rounded=0;orthogonalLoop=1;jettySize=auto;html=1;entryX=0;entryY=0.5;entryDx=0;entryDy=0;endArrow=none;endFill=0;" edge="1" parent="1" source="jqNd-tk94i1S7kKQQhx--3" target="jqNd-tk94i1S7kKQQhx--10">
          <mxGeometry relative="1" as="geometry" />
        </mxCell>
        <mxCell id="jqNd-tk94i1S7kKQQhx--3" value="Artista" style="rounded=0;whiteSpace=wrap;html=1;" vertex="1" parent="1">
          <mxGeometry x="300" y="742" width="120" height="60" as="geometry" />
        </mxCell>
        <mxCell id="jqNd-tk94i1S7kKQQhx--37" style="edgeStyle=orthogonalEdgeStyle;rounded=0;orthogonalLoop=1;jettySize=auto;html=1;endArrow=none;endFill=0;" edge="1" parent="1" source="jqNd-tk94i1S7kKQQhx--4" target="jqNd-tk94i1S7kKQQhx--9">
          <mxGeometry relative="1" as="geometry">
            <Array as="points">
              <mxPoint x="590" y="672" />
            </Array>
          </mxGeometry>
        </mxCell>
        <mxCell id="jqNd-tk94i1S7kKQQhx--4" value="Estilo" style="rounded=0;whiteSpace=wrap;html=1;" vertex="1" parent="1">
          <mxGeometry x="300" y="642" width="120" height="60" as="geometry" />
        </mxCell>
        <mxCell id="jqNd-tk94i1S7kKQQhx--50" style="edgeStyle=orthogonalEdgeStyle;rounded=0;orthogonalLoop=1;jettySize=auto;html=1;exitX=0;exitY=0.5;exitDx=0;exitDy=0;endArrow=none;endFill=0;" edge="1" parent="1" source="jqNd-tk94i1S7kKQQhx--7" target="jqNd-tk94i1S7kKQQhx--35">
          <mxGeometry relative="1" as="geometry" />
        </mxCell>
        <mxCell id="jqNd-tk94i1S7kKQQhx--5" value="Usuário" style="rounded=0;whiteSpace=wrap;html=1;" vertex="1" parent="1">
          <mxGeometry x="1130" y="500" width="120" height="60" as="geometry" />
        </mxCell>
        <mxCell id="jqNd-tk94i1S7kKQQhx--9" value="Álbuns" style="rounded=0;whiteSpace=wrap;html=1;" vertex="1" parent="1">
          <mxGeometry x="560" y="742" width="120" height="60" as="geometry" />
        </mxCell>
        <mxCell id="jqNd-tk94i1S7kKQQhx--11" style="edgeStyle=orthogonalEdgeStyle;rounded=0;orthogonalLoop=1;jettySize=auto;html=1;entryX=0;entryY=0.5;entryDx=0;entryDy=0;endArrow=none;endFill=0;" edge="1" parent="1" source="jqNd-tk94i1S7kKQQhx--10" target="jqNd-tk94i1S7kKQQhx--9">
          <mxGeometry relative="1" as="geometry" />
        </mxCell>
        <mxCell id="jqNd-tk94i1S7kKQQhx--10" value="Possui" style="rhombus;whiteSpace=wrap;html=1;" vertex="1" parent="1">
          <mxGeometry x="450" y="732" width="80" height="80" as="geometry" />
        </mxCell>
        <mxCell id="jqNd-tk94i1S7kKQQhx--13" value="" style="ellipse;whiteSpace=wrap;html=1;" vertex="1" parent="1">
          <mxGeometry x="890" y="250" width="120" height="40" as="geometry" />
        </mxCell>
        <mxCell id="jqNd-tk94i1S7kKQQhx--15" value="" style="edgeStyle=orthogonalEdgeStyle;rounded=0;orthogonalLoop=1;jettySize=auto;html=1;endArrow=none;endFill=0;" edge="1" parent="1" source="jqNd-tk94i1S7kKQQhx--14" target="jqNd-tk94i1S7kKQQhx--3">
          <mxGeometry relative="1" as="geometry" />
        </mxCell>
        <mxCell id="jqNd-tk94i1S7kKQQhx--14" value="Nome" style="ellipse;whiteSpace=wrap;html=1;" vertex="1" parent="1">
          <mxGeometry x="150" y="752" width="120" height="40" as="geometry" />
        </mxCell>
        <mxCell id="jqNd-tk94i1S7kKQQhx--19" value="TipoPermissão" style="ellipse;whiteSpace=wrap;html=1;" vertex="1" parent="1">
          <mxGeometry x="800" y="80" width="120" height="40" as="geometry" />
        </mxCell>
        <mxCell id="jqNd-tk94i1S7kKQQhx--53" style="edgeStyle=orthogonalEdgeStyle;rounded=0;orthogonalLoop=1;jettySize=auto;html=1;exitX=0;exitY=0.5;exitDx=0;exitDy=0;entryX=1;entryY=0.5;entryDx=0;entryDy=0;endArrow=none;endFill=0;" edge="1" parent="1" source="jqNd-tk94i1S7kKQQhx--20" target="jqNd-tk94i1S7kKQQhx--5">
          <mxGeometry relative="1" as="geometry" />
        </mxCell>
        <mxCell id="jqNd-tk94i1S7kKQQhx--20" value="Senha" style="ellipse;whiteSpace=wrap;html=1;" vertex="1" parent="1">
          <mxGeometry x="1350" y="560" width="120" height="40" as="geometry" />
        </mxCell>
        <mxCell id="jqNd-tk94i1S7kKQQhx--54" style="edgeStyle=orthogonalEdgeStyle;rounded=0;orthogonalLoop=1;jettySize=auto;html=1;entryX=1;entryY=0.5;entryDx=0;entryDy=0;endArrow=none;endFill=0;" edge="1" parent="1" source="jqNd-tk94i1S7kKQQhx--21" target="jqNd-tk94i1S7kKQQhx--5">
          <mxGeometry relative="1" as="geometry" />
        </mxCell>
        <mxCell id="jqNd-tk94i1S7kKQQhx--21" value="Email" style="ellipse;whiteSpace=wrap;html=1;" vertex="1" parent="1">
          <mxGeometry x="1350" y="460" width="120" height="40" as="geometry" />
        </mxCell>
        <mxCell id="jqNd-tk94i1S7kKQQhx--52" style="edgeStyle=orthogonalEdgeStyle;rounded=0;orthogonalLoop=1;jettySize=auto;html=1;exitX=0;exitY=0.5;exitDx=0;exitDy=0;entryX=1;entryY=0.5;entryDx=0;entryDy=0;endArrow=none;endFill=0;" edge="1" parent="1" source="jqNd-tk94i1S7kKQQhx--22" target="jqNd-tk94i1S7kKQQhx--5">
          <mxGeometry relative="1" as="geometry" />
        </mxCell>
        <mxCell id="jqNd-tk94i1S7kKQQhx--22" value="Nome" style="ellipse;whiteSpace=wrap;html=1;" vertex="1" parent="1">
          <mxGeometry x="1350" y="510" width="120" height="40" as="geometry" />
        </mxCell>
        <mxCell id="jqNd-tk94i1S7kKQQhx--24" value="" style="ellipse;whiteSpace=wrap;html=1;" vertex="1" parent="1">
          <mxGeometry x="130" y="220" width="120" height="40" as="geometry" />
        </mxCell>
        <mxCell id="jqNd-tk94i1S7kKQQhx--27" value="1" style="text;html=1;align=center;verticalAlign=middle;resizable=0;points=[];autosize=1;strokeColor=none;fillColor=none;" vertex="1" parent="1">
          <mxGeometry x="420" y="772" width="30" height="30" as="geometry" />
        </mxCell>
        <mxCell id="jqNd-tk94i1S7kKQQhx--28" value="N" style="text;html=1;align=center;verticalAlign=middle;resizable=0;points=[];autosize=1;strokeColor=none;fillColor=none;" vertex="1" parent="1">
          <mxGeometry x="530" y="772" width="30" height="30" as="geometry" />
        </mxCell>
        <mxCell id="jqNd-tk94i1S7kKQQhx--29" value="1" style="text;html=1;align=center;verticalAlign=middle;resizable=0;points=[];autosize=1;strokeColor=none;fillColor=none;" vertex="1" parent="1">
          <mxGeometry x="560" y="712" width="30" height="30" as="geometry" />
        </mxCell>
        <mxCell id="jqNd-tk94i1S7kKQQhx--30" value="N" style="text;html=1;align=center;verticalAlign=middle;resizable=0;points=[];autosize=1;strokeColor=none;fillColor=none;" vertex="1" parent="1">
          <mxGeometry x="420" y="672" width="30" height="30" as="geometry" />
        </mxCell>
        <mxCell id="jqNd-tk94i1S7kKQQhx--58" style="edgeStyle=orthogonalEdgeStyle;rounded=0;orthogonalLoop=1;jettySize=auto;html=1;entryX=0.5;entryY=1;entryDx=0;entryDy=0;endArrow=none;endFill=0;" edge="1" parent="1" source="jqNd-tk94i1S7kKQQhx--31" target="jqNd-tk94i1S7kKQQhx--9">
          <mxGeometry relative="1" as="geometry" />
        </mxCell>
        <mxCell id="jqNd-tk94i1S7kKQQhx--31" value="QuantidadeMinutos" style="ellipse;whiteSpace=wrap;html=1;" vertex="1" parent="1">
          <mxGeometry x="410" y="832" width="120" height="40" as="geometry" />
        </mxCell>
        <mxCell id="jqNd-tk94i1S7kKQQhx--59" style="edgeStyle=orthogonalEdgeStyle;rounded=0;orthogonalLoop=1;jettySize=auto;html=1;exitX=1;exitY=0.5;exitDx=0;exitDy=0;endArrow=none;endFill=0;" edge="1" parent="1" source="jqNd-tk94i1S7kKQQhx--32">
          <mxGeometry relative="1" as="geometry">
            <mxPoint x="620" y="802" as="targetPoint" />
          </mxGeometry>
        </mxCell>
        <mxCell id="jqNd-tk94i1S7kKQQhx--32" value="Localização" style="ellipse;whiteSpace=wrap;html=1;" vertex="1" parent="1">
          <mxGeometry x="410" y="882" width="120" height="40" as="geometry" />
        </mxCell>
        <mxCell id="jqNd-tk94i1S7kKQQhx--60" style="edgeStyle=orthogonalEdgeStyle;rounded=0;orthogonalLoop=1;jettySize=auto;html=1;endArrow=none;endFill=0;" edge="1" parent="1" source="jqNd-tk94i1S7kKQQhx--33">
          <mxGeometry relative="1" as="geometry">
            <mxPoint x="620" y="822" as="targetPoint" />
          </mxGeometry>
        </mxCell>
        <mxCell id="jqNd-tk94i1S7kKQQhx--33" value="DataLançamento" style="ellipse;whiteSpace=wrap;html=1;" vertex="1" parent="1">
          <mxGeometry x="410" y="932" width="120" height="40" as="geometry" />
        </mxCell>
        <mxCell id="jqNd-tk94i1S7kKQQhx--61" style="edgeStyle=orthogonalEdgeStyle;rounded=0;orthogonalLoop=1;jettySize=auto;html=1;exitX=1;exitY=0.5;exitDx=0;exitDy=0;endArrow=none;endFill=0;" edge="1" parent="1" source="jqNd-tk94i1S7kKQQhx--34">
          <mxGeometry relative="1" as="geometry">
            <mxPoint x="620" y="802" as="targetPoint" />
          </mxGeometry>
        </mxCell>
        <mxCell id="jqNd-tk94i1S7kKQQhx--34" value="Titulo" style="ellipse;whiteSpace=wrap;html=1;" vertex="1" parent="1">
          <mxGeometry x="410" y="982" width="120" height="40" as="geometry" />
        </mxCell>
        <mxCell id="jqNd-tk94i1S7kKQQhx--35" value="Plataforma" style="rounded=0;whiteSpace=wrap;html=1;" vertex="1" parent="1">
          <mxGeometry x="560" y="500" width="120" height="60" as="geometry" />
        </mxCell>
        <mxCell id="jqNd-tk94i1S7kKQQhx--16" value="Possui" style="rhombus;whiteSpace=wrap;html=1;" vertex="1" parent="1">
          <mxGeometry x="450" y="632" width="80" height="80" as="geometry" />
        </mxCell>
        <mxCell id="jqNd-tk94i1S7kKQQhx--43" value="Possui" style="rhombus;whiteSpace=wrap;html=1;" vertex="1" parent="1">
          <mxGeometry x="580" y="390" width="80" height="80" as="geometry" />
        </mxCell>
        <mxCell id="jqNd-tk94i1S7kKQQhx--47" value="" style="edgeStyle=orthogonalEdgeStyle;rounded=0;orthogonalLoop=1;jettySize=auto;html=1;endArrow=none;endFill=0;" edge="1" parent="1" source="jqNd-tk94i1S7kKQQhx--45" target="jqNd-tk94i1S7kKQQhx--35">
          <mxGeometry relative="1" as="geometry" />
        </mxCell>
        <mxCell id="jqNd-tk94i1S7kKQQhx--48" style="edgeStyle=orthogonalEdgeStyle;rounded=0;orthogonalLoop=1;jettySize=auto;html=1;exitX=0.5;exitY=1;exitDx=0;exitDy=0;endArrow=none;endFill=0;" edge="1" parent="1" target="jqNd-tk94i1S7kKQQhx--9">
          <mxGeometry relative="1" as="geometry">
            <mxPoint x="620" y="642" as="sourcePoint" />
          </mxGeometry>
        </mxCell>
        <mxCell id="jqNd-tk94i1S7kKQQhx--45" value="Disponibiliza" style="rhombus;whiteSpace=wrap;html=1;" vertex="1" parent="1">
          <mxGeometry x="580" y="610" width="80" height="80" as="geometry" />
        </mxCell>
        <mxCell id="jqNd-tk94i1S7kKQQhx--49" value="Possui" style="rhombus;whiteSpace=wrap;html=1;" vertex="1" parent="1">
          <mxGeometry x="710" y="490" width="80" height="80" as="geometry" />
        </mxCell>
        <mxCell id="jqNd-tk94i1S7kKQQhx--55" value="" style="edgeStyle=orthogonalEdgeStyle;rounded=0;orthogonalLoop=1;jettySize=auto;html=1;exitX=0;exitY=0.5;exitDx=0;exitDy=0;endArrow=none;endFill=0;" edge="1" parent="1" source="jqNd-tk94i1S7kKQQhx--56" target="jqNd-tk94i1S7kKQQhx--7">
          <mxGeometry relative="1" as="geometry">
            <mxPoint x="1210" y="530" as="sourcePoint" />
            <mxPoint x="680" y="530" as="targetPoint" />
          </mxGeometry>
        </mxCell>
        <mxCell id="jqNd-tk94i1S7kKQQhx--7" value="Cadastro" style="rounded=0;whiteSpace=wrap;html=1;" vertex="1" parent="1">
          <mxGeometry x="830" y="500" width="120" height="60" as="geometry" />
        </mxCell>
        <mxCell id="jqNd-tk94i1S7kKQQhx--57" value="" style="edgeStyle=orthogonalEdgeStyle;rounded=0;orthogonalLoop=1;jettySize=auto;html=1;exitX=0;exitY=0.5;exitDx=0;exitDy=0;endArrow=none;endFill=0;" edge="1" parent="1" source="jqNd-tk94i1S7kKQQhx--5" target="jqNd-tk94i1S7kKQQhx--56">
          <mxGeometry relative="1" as="geometry">
            <mxPoint x="1210" y="530" as="sourcePoint" />
            <mxPoint x="980" y="530" as="targetPoint" />
          </mxGeometry>
        </mxCell>
        <mxCell id="jqNd-tk94i1S7kKQQhx--56" value="Possui" style="rhombus;whiteSpace=wrap;html=1;" vertex="1" parent="1">
          <mxGeometry x="1000" y="490" width="80" height="80" as="geometry" />
        </mxCell>
      </root>
    </mxGraphModel>
  </diagram>
</mxfile>
